<svg xmlns="http://www.w3.org/2000/svg" style="display: none">
    

    <symbol id="svg-four-arrows" viewBox="0 0 17 17">
    
            <path d="M15.196,0.083 L11.329,0.083 C10.949,0.083 10.641,0.393 10.641,0.773 L12.229,2.367 L10.312,4.284 C10.12,4.476 10.024,4.727 10.024,4.979 C10.024,5.231 10.12,5.482 10.312,5.674 C10.695,6.058 11.318,6.058 11.703,5.674 L13.617,3.759 L15.196,5.344 C15.576,5.344 15.883,5.034 15.883,4.654 L15.883,0.773 C15.883,0.393 15.576,0.083 15.196,0.083 L15.196,0.083 Z" class="si-glyph-fill"></path>
            <path d="M15.192,10.645 L13.573,12.257 L11.621,10.305 C11.236,9.92 10.614,9.92 10.229,10.305 C9.845,10.689 9.845,11.311 10.229,11.695 L12.18,13.645 L10.62,15.199 C10.62,15.579 10.929,15.886 11.31,15.886 L15.191,15.886 C15.572,15.886 15.881,15.579 15.881,15.199 L15.881,11.333 C15.883,10.951 15.573,10.645 15.192,10.645 L15.192,10.645 Z" class="si-glyph-fill"></path>
            <path d="M3.758,2.359 L5.342,0.78 C5.342,0.4 5.031,0.093 4.651,0.093 L0.771,0.093 C0.39,0.093 0.081,0.4 0.081,0.78 L0.081,4.646 C0.081,5.027 0.391,5.334 0.771,5.334 L2.366,3.747 L4.335,5.715 C4.527,5.908 4.778,6.004 5.029,6.004 C5.282,6.004 5.532,5.908 5.725,5.715 C6.108,5.332 6.108,4.709 5.725,4.326 L3.758,2.359 L3.758,2.359 Z" class="si-glyph-fill"></path>
            <path d="M4.951,9.645 L2.361,12.235 L0.767,10.634 C0.388,10.634 0.079,10.944 0.079,11.324 L0.079,15.205 C0.079,15.586 0.388,15.895 0.767,15.895 L4.634,15.895 C5.013,15.895 5.321,15.585 5.321,15.205 L3.75,13.627 L6.342,11.035 C6.727,10.65 6.727,10.029 6.342,9.644 C5.959,9.261 5.336,9.261 4.951,9.645 L4.951,9.645 Z" class="si-glyph-fill"></path>

    </symbol>

    <symbol id="svg-money" viewBox="0 0 512 512">
<g>
	<g>
		<g>
			<path d="M344.277,343.424c-0.819,0.708-20.011,17.707-20.011,49.109V435.2c0,4.71,3.814,8.533,8.533,8.533
				c4.719,0,8.533-3.823,8.533-8.533v-42.667c0-23.33,13.594-35.738,14.566-36.634l59.733-59.733
				c3.388-3.388,7.612-5.35,11.895-5.521c4.352-0.188,8.09,1.382,11.204,4.488c3.106,3.115,4.668,6.989,4.489,11.204
				c-0.171,4.284-2.133,8.508-5.521,11.895L395.034,360.9c-3.337,3.337-3.337,8.73,0,12.066c3.336,3.337,8.73,3.337,12.066,0
				l42.667-42.658c6.426-6.426,10.155-14.694,10.513-23.279c0.367-8.969-2.995-17.485-9.481-23.962
				c-6.485-6.477-14.891-9.813-23.97-9.481c-8.576,0.358-16.845,4.087-23.262,10.513L344.277,343.424z"/>
			<path d="M93.867,435.2c2.185,0,4.369-0.836,6.033-2.5c3.337-3.337,3.337-8.73,0-12.066l-68.753-68.71
				c-0.572-0.503-14.08-12.553-14.08-36.19v-128c0-9.412,7.654-17.067,17.067-17.067c9.412,0,17.067,7.654,17.067,17.067v67.558
				c0,4.71,3.814,8.533,8.533,8.533s8.533-3.823,8.533-8.533v-67.558c0-18.825-15.309-34.133-34.133-34.133
				C15.309,153.6,0,168.909,0,187.733v128c0,31.863,19.277,48.495,19.567,48.7L87.834,432.7
				C89.498,434.364,91.682,435.2,93.867,435.2z"/>
			<path d="M51.721,307.029c0.358,8.585,4.087,16.853,10.513,23.27l42.667,42.667c3.337,3.337,8.73,3.337,12.066,0
				c3.336-3.337,3.336-8.73,0-12.066L74.3,318.225c-3.388-3.379-5.35-7.603-5.521-11.887c-0.179-4.215,1.382-8.09,4.489-11.204
				c3.115-3.106,6.878-4.676,11.204-4.488c4.284,0.171,8.508,2.133,11.895,5.521l60.134,60.109
				c0.572,0.521,14.165,12.928,14.165,36.258V435.2c0,4.71,3.814,8.533,8.533,8.533s8.533-3.823,8.533-8.533v-42.667
				c0-31.403-19.191-48.401-19.567-48.7L108.433,284.1c-6.417-6.426-14.686-10.155-23.262-10.513
				c-9.114-0.316-17.493,3.004-23.97,9.481C54.716,289.545,51.354,298.061,51.721,307.029z"/>
			<path d="M256,110.933c9.412,0,17.067,7.654,17.067,17.067c0,4.71,3.814,8.533,8.533,8.533c4.719,0,8.533-3.823,8.533-8.533
				c0-15.855-10.914-29.107-25.6-32.922v-1.212c0-4.71-3.814-8.533-8.533-8.533s-8.533,3.823-8.533,8.533v1.212
				c-14.686,3.814-25.6,17.067-25.6,32.922c0,18.825,15.309,34.133,34.133,34.133c9.412,0,17.067,7.654,17.067,17.067
				s-7.654,17.067-17.067,17.067c-9.412,0-17.067-7.654-17.067-17.067c0-4.71-3.814-8.533-8.533-8.533s-8.533,3.823-8.533,8.533
				c0,15.855,10.914,29.107,25.6,32.922v1.212c0,4.71,3.814,8.533,8.533,8.533s8.533-3.823,8.533-8.533v-1.212
				c14.686-3.814,25.6-17.067,25.6-32.922c0-18.825-15.309-34.133-34.133-34.133c-9.412,0-17.067-7.654-17.067-17.067
				C238.933,118.588,246.588,110.933,256,110.933z"/>
			<path d="M196.267,460.8H59.733c-4.719,0-8.533,3.823-8.533,8.533v34.133c0,4.71,3.814,8.533,8.533,8.533s8.533-3.823,8.533-8.533
				v-25.6h119.467v25.6c0,4.71,3.814,8.533,8.533,8.533s8.533-3.823,8.533-8.533v-34.133C204.8,464.623,200.986,460.8,196.267,460.8
				z"/>
			<path d="M452.267,460.8H315.733c-4.719,0-8.533,3.823-8.533,8.533v34.133c0,4.71,3.814,8.533,8.533,8.533
				s8.533-3.823,8.533-8.533v-25.6h119.467v25.6c0,4.71,3.814,8.533,8.533,8.533c4.719,0,8.533-3.823,8.533-8.533v-34.133
				C460.8,464.623,456.986,460.8,452.267,460.8z"/>
			<path d="M256,34.133c-65.877,0-119.467,53.589-119.467,119.467S190.123,273.067,256,273.067S375.467,219.477,375.467,153.6
				S321.877,34.133,256,34.133z M256,256c-56.465,0-102.4-45.935-102.4-102.4c0-56.465,45.935-102.4,102.4-102.4
				s102.4,45.935,102.4,102.4C358.4,210.065,312.465,256,256,256z"/>
			<path d="M477.867,153.6c-18.825,0-34.133,15.309-34.133,34.133v67.558c0,4.71,3.814,8.533,8.533,8.533
				c4.719,0,8.533-3.823,8.533-8.533v-67.558c0-9.412,7.654-17.067,17.067-17.067s17.067,7.654,17.067,17.067v128
				c0,23.637-13.508,35.686-14.566,36.634L412.1,420.634c-3.337,3.337-3.337,8.73,0,12.066c1.664,1.664,3.849,2.5,6.033,2.5
				c2.185,0,4.369-0.836,6.033-2.5l67.738-67.78c0.819-0.691,20.096-17.323,20.096-49.186v-128
				C512,168.909,496.691,153.6,477.867,153.6z"/>
			<path d="M409.6,153.6C409.6,68.907,340.693,0,256,0S102.4,68.907,102.4,153.6S171.307,307.2,256,307.2S409.6,238.293,409.6,153.6
				z M256,290.133c-75.281,0-136.533-61.252-136.533-136.533S180.719,17.067,256,17.067S392.533,78.319,392.533,153.6
				S331.281,290.133,256,290.133z"/>
		</g>
	</g>
</g>

</symbol>

<symbol id="svg-medicine" viewBox="0 0 512 512"><g id="_x35_89_x2C__Drugs_x2C__medicine_x2C__pills_x2C__tablets"><g><g><g><g><path d="M371.813,263.628c-2.56,0-5.118-0.977-7.071-2.929L251.604,147.562c-3.905-3.905-3.905-10.237,0-14.142l87.926-87.927       c21.949-21.948,50.845-34.537,79.277-34.537c22.958,0,43.936,8.335,59.07,23.469c35.091,35.091,30.127,97.153-11.066,138.347       l-87.928,87.928C376.932,262.651,374.371,263.628,371.813,263.628z M272.818,140.491l98.994,98.995l80.856-80.856       c33.396-33.396,38.359-82.77,11.066-110.062c-11.356-11.357-27.313-17.611-44.928-17.611       c-23.168,0-46.909,10.453-65.135,28.679L272.818,140.491z"/></g><g><path d="M140.882,310.956c-2.559,0-5.119-0.977-7.071-2.929L45.883,220.1c-19.722-19.722-31.848-44.787-34.146-70.578       c-2.358-26.461,5.838-50.528,23.08-67.769c15.133-15.134,36.112-23.469,59.07-23.469c28.433,0,57.328,12.588,79.276,34.536       l87.927,87.927c3.905,3.905,3.905,10.237,0,14.142L147.953,308.027C146,309.979,143.441,310.956,140.882,310.956z        M93.887,78.284c-17.616,0-33.572,6.254-44.928,17.61c-27.293,27.293-22.328,76.667,11.067,110.063l80.856,80.855       l98.995-98.995l-80.856-80.856C140.795,88.737,117.055,78.284,93.887,78.284z"/></g><g><path d="M261.348,300.956c-16.542,0-30-13.458-30-30s13.458-30,30-30c16.542,0,30,13.458,30,30S277.89,300.956,261.348,300.956       z M261.348,260.956c-5.514,0-10,4.486-10,10s4.486,10,10,10c5.514,0,10-4.486,10-10S266.861,260.956,261.348,260.956z"/></g><g><path d="M321.348,360.956c-16.542,0-30-13.458-30-30s13.458-30,30-30s30,13.458,30,30S337.89,360.956,321.348,360.956z        M321.348,320.956c-5.514,0-10,4.486-10,10s4.486,10,10,10s10-4.486,10-10S326.861,320.956,321.348,320.956z"/></g><g><path d="M201.347,360.956c-16.542,0-30-13.458-30-30s13.458-30,30-30s30,13.458,30,30S217.889,360.956,201.347,360.956z        M201.347,320.956c-5.514,0-10,4.486-10,10s4.486,10,10,10s10-4.486,10-10S206.861,320.956,201.347,320.956z"/></g><g><path d="M261.348,420.956c-16.542,0-30-13.458-30-30s13.458-30,30-30c16.542,0,30,13.458,30,30S277.89,420.956,261.348,420.956       z M261.348,380.956c-5.514,0-10,4.486-10,10s4.486,10,10,10c5.514,0,10-4.486,10-10S266.861,380.956,261.348,380.956z"/></g><g><path d="M221.347,500.956c-16.542,0-30-13.458-30-30s13.458-30,30-30s30,13.458,30,30S237.889,500.956,221.347,500.956z        M221.347,460.956c-5.514,0-10,4.486-10,10s4.486,10,10,10s10-4.486,10-10S226.861,460.956,221.347,460.956z"/></g><g><path d="M301.348,500.956c-16.542,0-30-13.458-30-30s13.458-30,30-30s30,13.458,30,30S317.89,500.956,301.348,500.956z        M301.348,460.956c-5.514,0-10,4.486-10,10s4.486,10,10,10s10-4.486,10-10S306.861,460.956,301.348,460.956z"/></g></g></g></g></g><g id="Layer_1"/></symbol>

<symbol id="svg-eye" viewBox="0 0 412.062 412.062">
<g>
	<g>
		<path d="M402.321,173.233c-18.051-7.623-35.327-14.316-52.302-19.883c1.479-4.97-0.163-12.596-1.597-17.222
			c-0.562-2.08-1.945-5.014-3.395-7.182c0.928,8.287-2.429,15.178-7.844,20.396c-4.183-1.236-8.353-2.395-12.519-3.481
			c4.539-5.004,2.152-16.64,0.01-23.555c-0.768-2.362-2.387-6.151-4.165-8.813c1.341,11.977-4.607,21.577-13.392,28.247
			c-3.892-0.811-7.787-1.552-11.693-2.219c7.855-10.99,1.568-28.631,1.568-28.631s-2.15-7.047-5.387-11.397
			c1.771,15.818-6.285,28.437-18.044,37.081c-3.619-0.355-7.262-0.638-10.921-0.861c4.641-5.453,3.19-16.092,0.841-23.675
			c-1.016-3.272-2.785-7.18-4.862-10.285c1.597,14.243-5.639,25.612-16.212,33.412c-4.063,0.026-8.16,0.133-12.3,0.326
			c1.623-4.296,0.355-12.019-0.703-15.116c-1.06-3.097-2.164-5.325-3.705-7.631c1.119,9.994-3.621,18.079-10.771,23.824
			c-4.176,0.395-8.396,0.872-12.667,1.438c0.729-2.996,0.065-6.892-0.864-9.89c-0.51-1.926-1.482-3.821-2.588-5.475
			c0.798,7.122-2.555,12.891-7.627,17.006c-33.152,5.443-69.521,16.019-111.433,32.759c-43.232,17.269-69.532,35.661-70.642,36.408
			L0,214.812l7.785,7.853c59.984,59.647,122.235,89.896,185.021,89.904c0.011,0,0.013,0,0.022,0
			c52.58,0,106.084-21.902,154.716-63.333c36.441-31.046,57.188-61.744,58.053-63.035l6.465-9.086L402.321,173.233z
			 M166.838,182.506l10.496,14.447c-3.411,3.583-6.16,7.798-8.052,12.457l-16.835-5.471
			C155.58,195.73,160.544,188.419,166.838,182.506z M167.531,233.923l-16.838,5.471c-1.303-4.793-2.002-9.834-2.002-15.034
			c0-3.324,0.289-6.583,0.834-9.754l17.063,5.543c-0.146,1.384-0.223,2.788-0.223,4.21
			C166.365,227.657,166.776,230.858,167.531,233.923z M171.67,244.191c2.149,3.727,4.882,7.071,8.079,9.909l-10.41,14.328
			c-6.118-5.117-11.157-11.479-14.727-18.695L171.67,244.191z M28.695,217.868c20.063-11.832,70.084-38.614,134.057-53.412
			c-18.539,13.461-30.627,35.291-30.627,59.902c0,32.262,20.76,59.751,49.615,69.854C130.363,290.985,78.973,265.359,28.695,217.868
			z M200.606,281.527c-7.969-0.765-15.465-3.162-22.151-6.854l10.496-14.445c3.616,1.734,7.535,2.932,11.655,3.504V281.527z
			 M200.606,184.986c-5.274,0.733-10.215,2.499-14.616,5.09l-10.411-14.332c7.384-4.657,15.896-7.679,25.027-8.554V184.986z
			 M211.65,263.729c19.347-2.688,34.24-19.285,34.24-39.371c0-2.454-0.232-4.854-0.66-7.186c-3.207,2.098-7.039,3.319-11.156,3.319
			c-11.286,0-20.435-9.147-20.435-20.434c0-5.144,1.903-9.838,5.04-13.43c-2.26-0.752-4.609-1.302-7.029-1.642v-17.798
			c29.088,2.788,51.913,27.361,51.913,57.168c0,29.808-22.825,54.381-51.913,57.169V263.729z M335.873,235.536
			c-21.773,18.551-52.495,39.553-89.426,50.828c20.258-13.219,33.684-36.066,33.684-62.006c0-32.107-20.561-59.493-49.2-69.714
			c6.116-0.323,12.294-0.498,18.526-0.498c48.192,0,93.604,10.186,135.138,30.291C376.223,195.327,359.429,215.47,335.873,235.536z"
			/>
	</g>
</g>

</symbol>

<symbol id="svg-artwork" viewBox="0 0 48 48"><g><path d="M0,4v40h48V4H0z M44,40H4V8h40V40z" fill="#241F20"/><circle cx="32.704" cy="15.172" fill="#241F20" r="4"/><polygon fill="#241F20" points="36.704,37 27.083,20.917 24,23.903 18.062,14.74 7.042,37 34.536,37  "/></g></symbol>

<symbol id="svg-sea" viewBox="0 0 512 512">
<g>
	<g>
		<g>
			<path d="M43.116,99.705c0,31.203,25.387,56.589,56.589,56.589s56.589-25.387,56.589-56.589s-25.387-56.589-56.589-56.589
				S43.116,68.502,43.116,99.705z M140.126,99.705c0,22.289-18.132,40.421-40.421,40.421s-40.421-18.132-40.421-40.421
				s18.132-40.421,40.421-40.421S140.126,77.417,140.126,99.705z"/>
			<path d="M78.147,265.976c-6.431-7.736-16.124-12.671-26.947-12.671c-4.466,0-8.084,3.619-8.084,8.084
				c0,4.466,3.619,8.084,8.084,8.084c10.401,0,18.863,8.463,18.863,18.863c0,4.466,3.618,8.084,8.084,8.084
				c4.466,0,8.084-3.619,8.084-8.084c0-10.401,8.463-18.863,18.863-18.863c4.466,0,8.084-3.618,8.084-8.084
				c0-4.466-3.618-8.084-8.084-8.084C94.272,253.305,84.578,258.24,78.147,265.976z"/>
			<path d="M99.705,199.411c26.4,0,51.282-10.216,70.063-28.767c3.177-3.138,3.209-8.256,0.07-11.432
				c-3.137-3.177-8.256-3.207-11.432-0.07c-15.735,15.542-36.582,24.101-58.701,24.101c-46.062,0-83.537-37.475-83.537-83.537
				c0-13.674,3.374-27.233,9.755-39.213c2.099-3.941,0.607-8.837-3.334-10.936c-3.941-2.101-8.837-0.607-10.936,3.334
				C4.029,67.202,0,83.39,0,99.705C0,154.683,44.727,199.411,99.705,199.411z"/>
			<path d="M40.636,40.636c15.777-15.777,36.755-24.467,59.07-24.467c46.062,0,83.537,37.475,83.537,83.537
				c0,12.946-2.878,25.35-8.552,36.869c-1.974,4.004-0.327,8.852,3.679,10.824c1.149,0.566,2.367,0.834,3.567,0.834
				c2.982,0,5.85-1.659,7.258-4.514c6.78-13.76,10.217-28.568,10.217-44.014C199.411,44.727,154.683,0,99.705,0
				C73.072,0,48.034,10.372,29.202,29.204c-3.157,3.156-3.157,8.275,0.001,11.432C32.359,43.794,37.478,43.793,40.636,40.636z"/>
			<path d="M374.568,59.284h10.779c4.466,0,8.084-3.619,8.084-8.084s-3.618-8.084-8.084-8.084h-10.779
				c-7.43,0-13.474-6.044-13.474-13.474c0-7.43,6.044-13.474,13.474-13.474h107.789c7.43,0,13.474,6.044,13.474,13.474
				c0,7.43-6.044,13.474-13.474,13.474h-65.482c-4.466,0-8.084,3.619-8.084,8.084s3.618,8.084,8.084,8.084h65.482
				c16.344,0,29.642-13.298,29.642-29.642C512,13.298,498.702,0,482.358,0H374.568c-16.344,0-29.642,13.298-29.642,29.642
				C344.926,45.986,358.224,59.284,374.568,59.284z"/>
			<path d="M8.084,393.432H148.21c4.466,0,8.084-3.618,8.084-8.084c0-4.466-3.618-8.084-8.084-8.084H8.084
				c-4.466,0-8.084,3.618-8.084,8.084C0,389.813,3.619,393.432,8.084,393.432z"/>
			<path d="M458.105,464.393c0-4.466-3.619-8.084-8.084-8.084h-43.116c-4.466,0-8.084,3.618-8.084,8.084
				c0,4.466,3.618,8.084,8.084,8.084h43.116C454.487,472.477,458.105,468.858,458.105,464.393z"/>
			<path d="M501.3,377.263h-51.279c-4.466,0-8.084,3.618-8.084,8.084c0,4.466,3.618,8.084,8.084,8.084H501.3
				c4.466,0,8.084-3.618,8.084-8.084C509.384,380.882,505.765,377.263,501.3,377.263z"/>
			<path d="M406.199,416.61l24.298-40.498c2.493-4.154,2.56-9.354,0.172-13.571c-2.388-4.217-6.88-6.836-11.725-6.836H317.979
				v-16.168h74.186c6.085,0,11.635-2.817,15.226-7.73c3.592-4.912,4.594-11.055,2.749-16.854L341.546,99.374
				c-2.502-7.861-9.725-13.143-17.975-13.143h-5.592v-2.694c0-4.466-3.618-8.084-8.084-8.084c-4.466,0-8.084,3.619-8.084,8.084
				v2.695h-7.557c-6.482,0-12.432,3.265-15.914,8.735L141.154,310.547c-3.697,5.809-3.935,13.168-0.622,19.204
				c3.313,6.036,9.65,9.786,16.536,9.786h121.838c4.466,0,8.084-3.619,8.084-8.084s-3.619-8.084-8.084-8.084H157.068
				c-1.387,0-2.076-0.876-2.363-1.398s-0.655-1.574,0.088-2.744l137.186-215.577c0.498-0.781,1.348-1.249,2.274-1.249h7.557v253.306
				H187.121c-4.053,0-7.85,1.798-10.42,4.931c-2.57,3.135-3.586,7.211-2.792,11.184l7.757,38.783
				c1.757,8.786,9.536,15.164,18.497,15.164h13.619c4.466,0,8.084-3.619,8.084-8.084s-3.619-8.084-8.084-8.084h-13.619
				c-1.279,0-2.392-0.911-2.642-2.167l-7.113-35.56h223.776l-21.85,36.418c-0.485,0.807-1.37,1.309-2.311,1.309H246.119
				c-4.466,0-8.084,3.619-8.084,8.084s3.618,8.084,8.084,8.084h143.904C396.61,425.768,402.808,422.259,406.199,416.61z
				 M317.979,102.4h5.592c1.178,0,2.21,0.755,2.568,1.878l68.593,215.579c0.361,1.134-0.091,1.995-0.392,2.408
				c-0.302,0.412-0.985,1.104-2.175,1.104h-74.185V102.4z"/>
			<path d="M501.3,495.832h-41.578c-4.466,0-8.084,3.619-8.084,8.084c0,4.466,3.618,8.084,8.084,8.084H501.3
				c4.466,0,8.084-3.618,8.084-8.084C509.384,499.45,505.765,495.832,501.3,495.832z"/>
			<path d="M148.21,416.786H51.2c-4.466,0-8.084,3.618-8.084,8.084c0,4.466,3.619,8.084,8.084,8.084h97.01
				c4.466,0,8.084-3.618,8.084-8.084C156.295,420.405,152.676,416.786,148.21,416.786z"/>
			<path d="M61.979,474.274H8.084c-4.466,0-8.084,3.618-8.084,8.084c0,4.466,3.619,8.084,8.084,8.084h53.895
				c4.466,0,8.084-3.618,8.084-8.084C70.063,477.892,66.445,474.274,61.979,474.274z"/>
			<path d="M320.674,495.832H191.326c-4.466,0-8.084,3.619-8.084,8.084c0,4.466,3.618,8.084,8.084,8.084h129.347
				c4.466,0,8.084-3.618,8.084-8.084C328.758,499.45,325.139,495.832,320.674,495.832z"/>
			<path d="M374.568,456.308H137.432c-4.466,0-8.084,3.618-8.084,8.084c0,4.466,3.619,8.084,8.084,8.084h237.137
				c4.466,0,8.084-3.618,8.084-8.084C382.653,459.927,379.034,456.308,374.568,456.308z"/>
		</g>
	</g>
</g>
</symbol>

<symbol id="svg-twitter" viewBox="0 0 455 455">
<path style="fill-rule:evenodd;clip-rule:evenodd;" d="M0,0v455h455V0H0z M352.751,163.259c0.123,2.773,0.186,5.561,0.186,8.36
	c0,85.403-65.002,183.876-183.873,183.876c-36.496,0-70.466-10.697-99.065-29.037c5.056,0.601,10.199,0.907,15.417,0.907
	c30.278,0,58.143-10.331,80.262-27.668c-28.28-0.519-52.148-19.204-60.373-44.88c3.948,0.757,7.997,1.163,12.161,1.163
	c5.894,0,11.604-0.794,17.027-2.268c-29.563-5.939-51.841-32.057-51.841-63.368c0-0.273,0-0.544,0.006-0.814
	c8.712,4.84,18.676,7.748,29.271,8.084c-17.342-11.589-28.748-31.371-28.748-53.79c0-11.845,3.187-22.945,8.751-32.492
	c31.873,39.101,79.493,64.828,133.203,67.526c-1.103-4.732-1.677-9.665-1.677-14.729c0-35.688,28.938-64.623,64.626-64.623
	c18.589,0,35.385,7.847,47.173,20.406c14.719-2.895,28.551-8.276,41.038-15.681c-4.824,15.092-15.071,27.754-28.415,35.754
	c13.074-1.563,25.528-5.038,37.118-10.178C376.336,142.766,365.38,154.149,352.751,163.259z"/>
</symbol>

<symbol id="svg-facebook" viewBox="0 0 455 455">
<path style="fill-rule:evenodd;clip-rule:evenodd;" d="M0,0v455h455V0H0z M301.004,125.217H265.44
	c-7.044,0-14.153,7.28-14.153,12.696v36.264h49.647c-1.999,27.807-6.103,53.235-6.103,53.235h-43.798V385h-65.266V227.395h-31.771
	v-53.029h31.771v-43.356c0-7.928-1.606-61.009,66.872-61.009h48.366V125.217z"/>
</symbol>

<symbol id="svg-youtube" viewBox="0 0 455 455">
<g>
	<path d="M0,0v455h455V0H0z M379.493,301.961
		c-3.861,16.75-17.563,29.118-34.057,30.96c-39.044,4.353-78.575,4.382-117.952,4.353c-39.361,0.029-78.892,0-117.948-4.353
		c-16.498-1.841-30.199-14.21-34.04-30.96C70,278.114,70,252.061,70,227.499c0-24.562,0.065-50.603,5.556-74.45
		c3.841-16.766,17.547-29.118,34.024-30.959c39.06-4.365,78.608-4.382,117.969-4.365c39.357-0.016,78.892,0,117.948,4.365
		c16.498,1.841,30.199,14.193,34.057,30.959c5.495,23.847,5.446,49.888,5.446,74.45C385,252.061,384.984,278.114,379.493,301.961z"
		/>
	<path d="M186.855,276.399c33.467-17.355,66.638-34.565,100.138-51.932
		c-33.597-17.53-66.764-34.821-100.138-52.237V276.399z"/>
</g>
</symbol>

<symbol id="svg-instagram" viewBox="0 0 455 455">
<g>
	<path style="fill-rule:evenodd;clip-rule:evenodd;" d="M336.351,106.363h-35.83c-6.986,0.051-12.346,5.157-12.396,12.104
		c-0.051,12.155-0.051,24.259,0,36.414c0.051,6.897,5.411,12.066,12.307,12.066h35.817c7.189,0,12.447-5.22,12.447-12.409
		c0.051-11.914,0.051-23.865,0-35.767C348.696,111.622,343.438,106.415,336.351,106.363z"/>
	<path style="fill-rule:evenodd;clip-rule:evenodd;" d="M227.591,288.104c33.493-0.051,60.534-27.143,60.534-60.635
		c-0.051-33.493-27.142-60.521-60.635-60.521c-33.378,0-60.47,27.129-60.521,60.47C166.918,260.961,194.06,288.104,227.591,288.104z
		"/>
	<path style="fill-rule:evenodd;clip-rule:evenodd;" d="M318.239,261.698c-7.24,19.102-19.344,34.433-36.173,45.952
		c-30.355,20.729-70.046,22.469-101.951,4.458c-16.131-9.132-28.781-21.782-37.608-38.104
		c-12.104-22.329-14.886-45.939-8.777-70.592h-27.345v132.51c0,7.595,5.169,12.752,12.752,12.752c4.864,0.051,9.678,0,14.543,0
		H335.55c8.192,0,13.146-5.004,13.146-13.197V203.361h-27.383C326.33,223.2,325.427,242.646,318.239,261.698z"/>
	<path style="fill-rule:evenodd;clip-rule:evenodd;" d="M0,0v455h455V0H0z M384.97,105.919V349.17
		c0,17.909-13.844,33.493-31.651,35.576c-1.397,0.152-2.781,0.254-4.166,0.254H105.89c-17.604,0-33.087-13.552-35.423-30.966
		c-0.292-2.032-0.445-4.115-0.445-6.147V106.96c0-18.162,12.155-32.947,30.012-36.363c2.134-0.406,4.37-0.546,6.554-0.546
		C187.253,70,267.879,70,348.505,70c18.9,0,34.433,14.035,36.363,32.795C385.021,103.836,384.97,104.877,384.97,105.919z"/>
</g>
</symbol>
</svg>